<svg id="svg" version="1.1" xmlns="http://www.w3.org/2000/svg" xmlns:xlink="http://www.w3.org/1999/xlink" width="400" height="401.5625" viewBox="0, 0, 400,401.5625"><g id="svgg"><path id="path0" d="M27.776 3.239 C 27.430 3.799,28.302 4.000,28.748 3.462 C 29.080 3.063,29.038 2.933,28.576 2.933 C 28.240 2.933,27.880 3.071,27.776 3.239 M14.000 12.600 C 13.592 13.091,13.620 13.200,14.151 13.200 C 14.508 13.200,14.800 12.930,14.800 12.600 C 14.800 12.270,14.732 12.000,14.649 12.000 C 14.566 12.000,14.274 12.270,14.000 12.600 M392.800 22.167 C 392.800 22.515,393.085 22.800,393.433 22.800 C 393.782 22.800,393.995 22.586,393.908 22.325 C 393.661 21.583,392.800 21.460,392.800 22.167 M304.400 85.629 C 292.428 97.860,280.229 110.264,257.200 133.620 C 246.310 144.665,234.610 156.543,231.200 160.016 C 209.286 182.333,203.966 187.600,203.339 187.600 C 202.952 187.600,199.117 184.097,194.818 179.815 C 190.518 175.533,182.950 168.050,178.000 163.186 C 173.050 158.322,164.197 149.598,158.327 143.800 C 147.077 132.687,146.431 132.139,145.300 132.749 C 144.915 132.957,139.174 138.678,132.541 145.463 C 125.909 152.248,113.450 164.910,104.853 173.600 C 88.575 190.055,88.649 189.969,90.087 190.976 C 91.281 191.812,103.395 203.599,120.635 220.700 C 128.454 228.455,135.019 234.800,135.225 234.800 C 135.431 234.800,135.600 235.058,135.600 235.373 C 135.600 235.688,135.960 236.060,136.400 236.200 C 136.840 236.340,137.200 236.593,137.200 236.762 C 137.200 236.932,138.023 237.864,139.028 238.835 C 140.859 240.602,142.787 242.576,144.100 244.027 C 144.563 244.538,145.326 244.800,146.351 244.800 C 147.780 244.800,148.230 245.123,152.076 248.900 C 159.932 256.617,197.287 293.396,200.218 296.300 C 201.828 297.895,203.404 299.200,203.720 299.200 C 204.372 299.200,211.543 292.009,254.871 247.900 C 257.626 245.095,260.053 242.800,260.264 242.800 C 260.654 242.800,267.980 235.508,283.977 219.200 C 288.833 214.250,292.979 210.020,293.191 209.800 C 293.403 209.580,294.437 208.540,295.488 207.490 C 296.540 206.439,301.055 201.881,305.523 197.360 C 312.434 190.367,313.737 189.215,314.254 189.644 C 314.746 190.053,314.936 190.040,315.259 189.574 C 315.712 188.921,315.448 154.768,314.763 125.600 C 314.528 115.590,314.216 100.575,314.068 92.233 C 313.899 82.693,313.652 77.024,313.400 76.955 C 313.180 76.893,309.130 80.797,304.400 85.629 M89.900 298.133 C 89.406 299.340,89.523 301.174,90.038 300.290 C 90.265 299.899,90.395 299.089,90.326 298.490 C 90.221 297.580,90.151 297.521,89.900 298.133 M0.000 365.000 C 0.000 365.330,0.180 365.600,0.400 365.600 C 0.620 365.600,0.800 365.330,0.800 365.000 C 0.800 364.670,0.620 364.400,0.400 364.400 C 0.180 364.400,0.000 364.670,0.000 365.000 M398.202 369.998 C 397.803 370.439,397.662 370.800,397.889 370.800 C 398.392 370.800,399.390 369.657,399.121 369.388 C 399.015 369.282,398.602 369.556,398.202 369.998 " stroke="none" fill="#224b8c" fill-rule="evenodd"></path><path id="path1" d="M89.416 78.900 C 89.328 79.175,89.062 91.280,88.825 105.800 C 88.587 120.320,88.203 142.460,87.972 155.000 C 87.445 183.519,87.538 190.140,88.466 190.318 C 88.833 190.388,89.193 190.182,89.266 189.859 C 89.340 189.536,97.275 181.291,106.899 171.536 C 123.927 154.277,129.549 148.554,140.107 137.727 L 145.214 132.490 131.907 119.294 C 124.588 112.036,117.340 104.880,115.800 103.390 C 114.260 101.901,107.924 95.669,101.719 89.541 C 90.760 78.718,89.752 77.845,89.416 78.900 M315.594 188.500 C 315.580 189.597,314.898 190.179,314.254 189.644 C 313.737 189.215,312.434 190.367,305.523 197.360 C 301.055 201.881,296.540 206.439,295.488 207.490 C 294.437 208.540,293.403 209.580,293.191 209.800 C 292.979 210.020,288.833 214.250,283.977 219.200 C 267.980 235.508,260.654 242.800,260.264 242.800 C 260.053 242.800,257.626 245.095,254.871 247.900 C 211.543 292.009,204.372 299.200,203.720 299.200 C 203.404 299.200,201.828 297.895,200.218 296.300 C 197.287 293.396,159.932 256.617,152.076 248.900 C 148.230 245.123,147.780 244.800,146.351 244.800 C 145.326 244.800,144.563 244.538,144.100 244.027 C 142.787 242.576,140.859 240.602,139.028 238.835 C 138.023 237.864,137.200 236.932,137.200 236.762 C 137.200 236.593,136.840 236.340,136.400 236.200 C 135.960 236.060,135.600 235.688,135.600 235.373 C 135.600 235.058,135.431 234.800,135.225 234.800 C 135.019 234.800,128.454 228.455,120.635 220.700 C 103.435 203.639,91.013 191.551,90.230 191.113 C 89.750 190.844,89.662 191.216,89.714 193.295 C 89.805 196.925,88.867 260.476,88.390 282.971 C 88.063 298.391,88.083 302.207,88.492 302.472 C 88.984 302.792,98.289 302.738,168.600 302.009 C 186.860 301.820,213.848 301.640,228.574 301.610 C 243.300 301.580,255.471 301.480,255.621 301.387 C 256.489 300.851,313.727 301.190,314.347 301.736 C 315.894 303.099,317.506 301.244,316.629 299.110 C 316.188 298.039,316.063 287.763,315.945 242.901 C 315.865 212.706,315.755 188.001,315.700 188.001 C 315.645 188.000,315.597 188.225,315.594 188.500 M90.038 300.290 C 89.678 300.907,89.623 300.861,89.612 299.933 C 89.593 298.265,90.166 297.107,90.326 298.490 C 90.395 299.089,90.265 299.899,90.038 300.290 " stroke="none" fill="#5bc3f3" fill-rule="evenodd"></path><path id="path2" d="M40.000 6.219 C 38.350 6.515,36.280 7.029,35.400 7.361 C 34.520 7.693,33.566 7.973,33.279 7.982 C 31.886 8.029,22.180 13.625,20.800 15.177 C 20.690 15.300,19.906 15.997,19.058 16.725 C 16.091 19.273,13.355 22.686,10.261 27.699 C 8.977 29.780,6.758 35.807,5.880 39.600 L 5.000 43.400 5.000 200.800 C 5.000 352.544,5.027 358.322,5.741 361.600 C 9.547 379.058,21.743 391.507,38.876 395.423 L 43.152 396.400 199.983 396.400 L 356.814 396.400 360.707 395.571 C 378.107 391.867,390.773 379.026,394.396 361.418 C 395.193 357.545,395.200 356.185,395.200 200.933 L 395.200 44.354 394.358 40.277 C 390.688 22.501,376.139 8.409,358.996 6.025 C 354.002 5.330,43.908 5.519,40.000 6.219 M314.600 76.258 C 315.006 76.664,315.171 77.260,315.032 77.817 C 314.907 78.312,314.984 81.840,315.203 85.655 C 315.422 89.470,315.788 109.693,316.017 130.596 C 316.246 151.498,316.588 173.280,316.777 179.000 C 317.096 188.657,317.070 189.473,316.408 190.420 C 315.602 191.572,315.971 296.912,316.789 299.315 C 317.590 301.667,315.830 303.396,314.150 301.907 C 312.672 300.598,206.326 301.218,204.861 302.545 C 204.057 303.272,204.006 303.269,202.631 302.419 C 201.239 301.559,201.088 301.552,188.112 301.794 C 175.740 302.026,91.320 302.912,89.222 302.833 C 87.756 302.778,87.542 302.122,87.773 298.400 C 88.024 294.369,88.718 254.117,89.155 218.212 C 89.456 193.524,89.441 192.595,88.718 191.820 C 87.322 190.322,87.311 187.825,88.424 128.600 C 89.341 79.767,89.373 78.674,89.889 78.503 C 90.158 78.414,95.468 83.367,101.689 89.511 C 107.910 95.655,114.260 101.899,115.800 103.386 C 117.340 104.873,124.380 111.830,131.443 118.846 C 143.533 130.854,144.356 131.589,145.465 131.367 C 146.543 131.151,147.047 131.526,151.391 135.766 C 154.002 138.315,156.287 140.400,156.469 140.400 C 156.651 140.400,156.800 140.670,156.800 141.000 C 156.800 141.330,157.058 141.600,157.373 141.600 C 157.688 141.600,158.060 141.960,158.200 142.400 C 158.340 142.840,158.601 143.200,158.781 143.200 C 158.960 143.200,164.422 148.465,170.917 154.900 C 177.412 161.335,183.598 167.453,184.663 168.495 C 185.728 169.537,186.780 170.581,187.000 170.816 C 187.412 171.256,193.486 177.136,199.893 183.298 L 203.530 186.796 206.165 184.161 C 207.614 182.712,208.800 181.479,208.800 181.422 C 208.800 181.292,219.232 170.702,277.000 112.192 C 284.260 104.838,290.648 98.277,291.196 97.611 C 291.743 96.945,292.418 96.400,292.696 96.400 C 292.973 96.400,293.200 96.229,293.200 96.021 C 293.200 95.474,312.944 75.600,313.488 75.600 C 313.738 75.600,314.239 75.896,314.600 76.258 " stroke="none" fill="#fbfbfb" fill-rule="evenodd"></path><path id="path3" d="M39.933 0.384 C 39.860 0.595,38.573 0.816,37.073 0.875 C 35.269 0.946,34.187 1.180,33.873 1.568 C 33.504 2.025,33.509 2.088,33.900 1.853 C 34.175 1.688,34.400 1.743,34.400 1.976 C 34.400 2.209,33.635 2.427,32.700 2.461 C 30.083 2.555,28.641 3.018,29.026 3.642 C 29.148 3.839,28.797 4.000,28.246 4.000 C 27.682 4.000,26.988 4.368,26.655 4.843 C 26.227 5.453,25.612 5.695,24.420 5.721 C 23.218 5.748,22.830 5.902,22.981 6.294 C 23.094 6.589,22.875 6.940,22.493 7.075 C 22.112 7.209,21.440 7.641,21.000 8.035 C 20.560 8.429,20.081 8.717,19.937 8.676 C 19.489 8.547,16.800 10.966,16.800 11.498 C 16.800 11.774,16.665 11.979,16.500 11.953 C 15.677 11.823,15.273 12.077,15.071 12.852 C 14.922 13.418,14.640 13.624,14.228 13.466 C 13.801 13.302,13.532 13.531,13.364 14.200 C 13.230 14.734,12.778 15.280,12.360 15.413 C 11.942 15.545,11.600 15.822,11.600 16.027 C 11.600 16.232,11.343 16.400,11.028 16.400 C 10.713 16.400,10.398 16.805,10.328 17.300 C 10.242 17.901,9.967 18.161,9.500 18.082 C 9.076 18.011,8.800 18.217,8.800 18.606 C 8.800 18.987,9.003 19.145,9.300 18.994 C 9.575 18.855,9.488 18.997,9.106 19.310 C 8.725 19.623,8.545 20.023,8.706 20.199 C 8.868 20.374,8.609 20.422,8.132 20.305 C 7.454 20.138,7.294 20.250,7.403 20.814 C 7.656 22.127,7.172 23.149,6.369 22.994 C 5.955 22.914,5.634 22.973,5.656 23.125 C 5.797 24.117,5.543 24.812,5.132 24.558 C 4.815 24.362,4.748 24.489,4.925 24.950 C 5.087 25.371,4.961 25.717,4.593 25.858 C 4.260 25.986,4.000 26.588,4.000 27.230 C 4.000 28.154,3.865 28.324,3.300 28.113 C 2.702 27.889,2.676 27.943,3.117 28.486 C 3.517 28.979,3.523 29.159,3.145 29.285 C 2.876 29.375,2.618 30.009,2.570 30.694 C 2.464 32.231,2.082 32.898,1.511 32.545 C 1.251 32.385,1.191 32.463,1.362 32.738 C 1.519 32.992,1.435 33.200,1.175 33.200 C 0.835 33.200,0.822 33.345,1.128 33.713 C 1.398 34.039,1.418 34.442,1.183 34.813 C 0.979 35.136,0.809 36.075,0.806 36.900 C 0.803 37.725,0.620 38.400,0.400 38.400 C -0.259 38.400,-0.144 362.713,0.516 363.373 C 0.840 363.697,1.013 364.822,0.982 366.399 C 0.940 368.522,1.045 368.939,1.666 369.101 C 2.070 369.207,2.400 369.644,2.400 370.073 C 2.400 370.502,2.586 371.201,2.814 371.626 C 3.087 372.136,3.091 372.400,2.827 372.400 C 2.606 372.400,2.529 372.670,2.655 373.000 C 2.782 373.330,3.136 373.600,3.443 373.600 C 3.783 373.600,4.002 374.029,4.006 374.700 C 4.014 376.066,4.566 376.992,5.155 376.628 C 5.543 376.388,5.816 377.429,5.647 378.500 C 5.621 378.665,5.780 378.800,6.000 378.800 C 6.220 378.800,6.400 379.070,6.400 379.400 C 6.400 379.730,6.580 380.000,6.800 380.000 C 7.020 380.000,7.200 380.287,7.200 380.637 C 7.200 380.988,7.550 381.366,7.977 381.478 C 8.452 381.602,8.802 382.093,8.877 382.741 C 8.949 383.361,9.249 383.800,9.600 383.800 C 9.952 383.800,10.251 384.240,10.323 384.866 C 10.391 385.453,10.751 386.048,11.123 386.190 C 11.666 386.396,11.701 386.347,11.300 385.944 C 10.698 385.337,10.651 384.800,11.200 384.800 C 11.420 384.800,11.562 384.935,11.515 385.100 C 11.468 385.265,11.631 385.760,11.876 386.200 C 12.121 386.640,12.384 387.180,12.461 387.400 C 12.537 387.620,12.725 387.758,12.877 387.708 C 13.238 387.587,15.600 389.950,15.600 390.431 C 15.600 390.634,15.960 390.800,16.400 390.800 C 16.840 390.800,17.200 391.059,17.200 391.376 C 17.200 391.693,17.378 392.063,17.595 392.197 C 17.830 392.342,17.884 392.163,17.727 391.755 C 17.549 391.289,17.615 391.162,17.932 391.358 C 18.189 391.517,18.400 391.917,18.400 392.247 C 18.400 392.577,18.589 392.730,18.821 392.587 C 19.052 392.444,19.673 392.794,20.201 393.364 C 20.730 393.934,21.440 394.400,21.781 394.400 C 22.121 394.400,22.400 394.681,22.400 395.024 C 22.400 395.367,22.535 395.568,22.700 395.471 C 23.253 395.145,24.800 395.967,24.800 396.587 C 24.800 397.038,25.234 397.200,26.443 397.200 C 27.696 397.200,28.034 397.334,27.868 397.767 C 27.605 398.453,28.400 398.800,30.233 398.800 C 30.985 398.800,31.600 398.958,31.600 399.151 C 31.600 399.618,33.501 400.291,35.000 400.355 C 35.660 400.384,36.260 400.585,36.333 400.803 C 36.542 401.424,362.685 401.345,362.892 400.725 C 362.990 400.430,363.849 400.267,365.155 400.295 C 366.741 400.329,367.450 400.150,368.030 399.570 C 368.751 398.849,369.688 398.618,371.265 398.773 C 371.630 398.809,372.063 398.622,372.226 398.357 C 372.432 398.024,372.351 397.980,371.962 398.215 C 371.483 398.503,371.481 398.453,371.949 397.877 C 372.264 397.488,373.061 397.200,373.822 397.200 C 374.795 397.200,375.213 396.988,375.400 396.400 C 375.540 395.960,375.991 395.600,376.403 395.600 C 376.816 395.600,377.266 395.417,377.404 395.193 C 377.542 394.970,377.851 394.908,378.089 395.055 C 378.345 395.213,378.409 395.138,378.245 394.874 C 378.077 394.601,378.369 394.323,378.984 394.168 C 379.543 394.028,380.000 393.665,380.000 393.361 C 380.000 393.026,380.631 392.708,381.606 392.553 C 382.998 392.330,383.144 392.213,382.706 391.671 C 382.403 391.298,382.383 391.156,382.655 391.319 C 383.210 391.652,384.110 390.665,383.697 390.176 C 383.533 389.984,383.746 390.090,384.169 390.413 C 384.883 390.958,384.922 390.933,384.701 390.077 C 384.555 389.510,384.627 389.209,384.889 389.296 C 385.500 389.500,388.121 386.920,387.812 386.419 C 387.669 386.189,387.743 386.000,387.976 386.000 C 388.514 386.000,390.233 384.300,390.100 383.900 C 390.045 383.735,390.231 383.600,390.512 383.600 C 390.794 383.600,391.235 383.044,391.491 382.363 C 391.760 381.652,392.141 381.240,392.389 381.393 C 392.626 381.540,392.794 381.511,392.763 381.330 C 392.591 380.341,392.874 379.600,393.424 379.600 C 393.767 379.600,393.936 379.420,393.800 379.200 C 393.664 378.980,393.754 378.800,394.000 378.800 C 394.246 378.800,394.346 378.636,394.222 378.436 C 393.883 377.887,394.413 376.800,395.019 376.800 C 395.313 376.800,395.663 376.622,395.797 376.405 C 395.940 376.173,395.742 376.104,395.321 376.237 C 394.632 376.455,394.632 376.439,395.327 375.869 C 395.726 375.541,396.041 375.166,396.027 375.036 C 395.905 373.956,396.064 373.192,396.371 373.382 C 396.765 373.625,397.343 372.336,397.441 371.000 C 397.473 370.560,397.522 369.885,397.549 369.500 C 397.578 369.100,397.922 368.800,398.349 368.800 C 398.971 368.800,399.105 368.477,399.137 366.904 C 399.158 365.862,399.360 364.947,399.587 364.871 C 400.206 364.665,400.161 36.920,399.542 36.714 C 399.290 36.630,399.066 35.805,399.044 34.881 C 399.022 33.956,398.868 33.200,398.702 33.200 C 398.536 33.200,398.400 32.930,398.400 32.600 C 398.400 32.270,398.220 32.000,398.000 32.000 C 397.780 32.000,397.600 31.179,397.600 30.176 C 397.600 29.063,397.444 28.449,397.200 28.600 C 396.980 28.736,396.800 28.646,396.800 28.400 C 396.800 28.154,396.616 28.067,396.390 28.206 C 396.165 28.345,396.023 28.311,396.075 28.130 C 396.320 27.273,395.566 25.200,395.010 25.200 C 394.675 25.200,394.400 24.872,394.400 24.472 C 394.400 24.072,393.943 23.347,393.384 22.861 C 392.825 22.374,392.476 21.801,392.609 21.586 C 392.742 21.370,392.570 21.087,392.228 20.955 C 391.885 20.824,391.704 20.555,391.826 20.358 C 391.948 20.161,391.857 20.000,391.624 20.000 C 391.391 20.000,391.200 19.651,391.200 19.224 C 391.200 18.797,390.992 18.319,390.738 18.162 C 390.452 17.985,390.385 18.052,390.562 18.338 C 390.719 18.592,390.737 18.800,390.603 18.800 C 390.468 18.800,390.170 18.260,389.940 17.600 C 389.673 16.834,389.247 16.400,388.761 16.400 C 388.342 16.400,388.045 16.265,388.100 16.100 C 388.155 15.935,387.840 15.421,387.400 14.958 C 386.960 14.494,386.165 13.565,385.634 12.893 C 385.031 12.131,384.388 11.725,383.923 11.815 C 383.514 11.894,383.255 11.833,383.349 11.679 C 383.699 11.103,381.326 8.801,380.294 8.716 C 379.464 8.647,379.337 8.516,379.690 8.092 C 379.935 7.797,379.970 7.601,379.768 7.657 C 379.077 7.848,377.401 7.086,376.877 6.343 C 376.578 5.918,375.871 5.600,375.224 5.600 C 374.430 5.600,374.031 5.362,373.884 4.800 C 373.723 4.184,373.338 4.000,372.214 4.000 C 371.389 4.000,370.855 3.834,370.988 3.619 C 371.202 3.273,370.320 2.958,367.084 2.228 C 366.470 2.090,366.078 1.797,366.213 1.578 C 366.349 1.359,366.311 1.206,366.130 1.237 C 365.948 1.269,365.710 1.259,365.600 1.215 C 365.490 1.171,364.145 1.074,362.611 1.000 C 361.077 0.926,359.757 0.671,359.678 0.433 C 359.488 -0.137,40.131 -0.186,39.933 0.384 M358.600 3.737 C 359.040 3.822,287.670 3.894,200.000 3.898 C 112.330 3.902,41.130 3.792,41.777 3.653 C 43.015 3.387,357.217 3.471,358.600 3.737 M358.996 6.025 C 376.139 8.409,390.688 22.501,394.358 40.277 L 395.200 44.354 395.200 200.933 C 395.200 356.185,395.193 357.545,394.396 361.418 C 390.773 379.026,378.107 391.867,360.707 395.571 L 356.814 396.400 199.983 396.400 L 43.152 396.400 38.876 395.423 C 21.743 391.507,9.547 379.058,5.741 361.600 C 5.027 358.322,5.000 352.544,5.000 200.800 L 5.000 43.400 5.880 39.600 C 6.758 35.807,8.977 29.780,10.261 27.699 C 13.355 22.686,16.091 19.273,19.058 16.725 C 19.906 15.997,20.690 15.300,20.800 15.177 C 22.180 13.625,31.886 8.029,33.279 7.982 C 33.566 7.973,34.520 7.693,35.400 7.361 C 39.984 5.630,34.810 5.684,199.471 5.641 C 307.887 5.613,356.880 5.730,358.996 6.025 M396.472 41.736 C 396.122 42.459,396.055 42.274,396.059 40.600 C 396.063 38.755,396.095 38.688,396.477 39.736 C 396.763 40.521,396.761 41.138,396.472 41.736 M3.994 41.100 C 3.990 42.056,3.867 42.409,3.654 42.074 C 3.346 41.587,3.500 39.600,3.847 39.600 C 3.931 39.600,3.997 40.275,3.994 41.100 M303.116 85.621 C 297.662 91.132,293.200 95.812,293.200 96.021 C 293.200 96.229,292.973 96.400,292.696 96.400 C 292.418 96.400,291.743 96.945,291.196 97.611 C 290.648 98.277,284.260 104.838,277.000 112.192 C 219.232 170.702,208.800 181.292,208.800 181.422 C 208.800 181.479,207.614 182.712,206.165 184.161 L 203.530 186.796 199.893 183.298 C 193.486 177.136,187.412 171.256,187.000 170.816 C 186.780 170.581,185.728 169.537,184.663 168.495 C 183.598 167.453,177.412 161.335,170.917 154.900 C 164.422 148.465,158.960 143.200,158.781 143.200 C 158.601 143.200,158.340 142.840,158.200 142.400 C 158.060 141.960,157.688 141.600,157.373 141.600 C 157.058 141.600,156.800 141.330,156.800 141.000 C 156.800 140.670,156.651 140.400,156.469 140.400 C 156.287 140.400,154.018 138.330,151.426 135.800 C 147.046 131.524,145.622 130.594,145.000 131.600 C 144.864 131.820,145.135 132.000,145.603 132.000 C 147.215 132.000,143.330 128.290,191.561 175.895 C 197.633 181.888,202.867 186.893,203.193 187.018 C 203.591 187.171,206.477 184.493,211.993 178.852 C 216.507 174.236,229.380 161.154,240.600 149.782 C 251.820 138.410,264.150 125.897,268.000 121.975 C 271.850 118.053,282.950 106.779,292.667 96.922 C 302.383 87.065,310.890 78.415,311.570 77.700 C 312.758 76.451,313.748 76.065,314.136 76.700 C 314.767 77.732,316.543 188.985,315.947 190.099 C 315.343 191.228,315.836 191.430,316.521 190.335 C 317.019 189.540,317.056 187.847,316.770 179.000 C 316.585 173.280,316.246 151.498,316.017 130.596 C 315.788 109.693,315.422 89.470,315.203 85.655 C 314.984 81.840,314.907 78.312,315.032 77.817 C 315.264 76.892,314.363 75.600,313.488 75.600 C 313.237 75.600,308.570 80.109,303.116 85.621 M88.241 191.162 C 88.998 192.443,89.871 192.883,89.443 191.767 C 89.309 191.419,89.200 191.066,89.200 190.981 C 89.200 190.897,88.820 190.625,88.355 190.376 C 87.511 189.924,87.511 189.926,88.241 191.162 M89.701 194.200 C 89.705 195.080,89.787 195.393,89.883 194.895 C 89.979 194.398,89.975 193.678,89.875 193.295 C 89.775 192.913,89.696 193.320,89.701 194.200 M89.366 204.400 C 89.366 208.470,89.425 210.135,89.498 208.100 C 89.571 206.065,89.571 202.735,89.498 200.700 C 89.425 198.665,89.366 200.330,89.366 204.400 M315.781 218.800 C 315.781 226.830,315.834 230.115,315.899 226.100 C 315.965 222.085,315.965 215.515,315.899 211.500 C 315.834 207.485,315.781 210.770,315.781 218.800 M88.974 237.400 C 88.975 243.120,89.031 245.404,89.099 242.476 C 89.168 239.548,89.167 234.868,89.099 232.076 C 89.030 229.284,88.974 231.680,88.974 237.400 M88.558 267.400 C 88.558 270.480,88.621 271.687,88.697 270.082 C 88.773 268.478,88.773 265.958,88.696 264.482 C 88.619 263.007,88.557 264.320,88.558 267.400 M316.181 283.600 C 316.181 291.630,316.234 294.915,316.299 290.900 C 316.365 286.885,316.365 280.315,316.299 276.300 C 316.234 272.285,316.181 275.570,316.181 283.600 M88.162 287.400 C 88.162 290.920,88.224 292.306,88.298 290.481 C 88.372 288.656,88.372 285.776,88.297 284.081 C 88.222 282.386,88.161 283.880,88.162 287.400 M87.720 300.000 C 87.720 301.210,87.795 301.705,87.887 301.100 C 87.978 300.495,87.978 299.505,87.887 298.900 C 87.795 298.295,87.720 298.790,87.720 300.000 M314.136 301.857 C 314.828 302.692,316.141 302.743,316.629 301.953 C 316.748 301.760,316.410 301.768,315.878 301.970 C 315.151 302.247,314.725 302.172,314.168 301.669 C 313.450 301.021,313.449 301.027,314.136 301.857 M202.728 302.432 C 203.963 303.252,204.103 303.268,204.717 302.654 C 205.331 302.041,205.307 301.999,204.389 302.066 C 203.845 302.106,202.950 302.006,202.400 301.844 C 201.564 301.597,201.618 301.694,202.728 302.432 M4.000 360.680 C 4.000 361.592,3.858 362.014,3.631 361.780 C 3.296 361.435,3.483 359.200,3.847 359.200 C 3.931 359.200,4.000 359.866,4.000 360.680 M396.697 361.776 C 396.450 363.618,396.000 363.349,396.012 361.367 C 396.022 359.852,396.117 359.559,396.427 360.091 C 396.649 360.471,396.770 361.229,396.697 361.776 M5.572 366.700 C 5.547 367.660,5.503 367.698,5.222 367.000 C 5.045 366.560,4.978 366.065,5.074 365.900 C 5.412 365.314,5.600 365.615,5.572 366.700 M394.854 367.061 C 394.477 367.709,394.423 367.654,394.412 366.620 C 394.403 365.759,394.520 365.560,394.841 365.881 C 395.158 366.198,395.161 366.532,394.854 367.061 M40.891 397.535 C 40.411 397.840,38.000 397.689,38.000 397.355 C 38.000 397.270,38.765 397.203,39.700 397.206 C 40.720 397.210,41.196 397.342,40.891 397.535 M361.200 397.614 C 360.381 397.809,359.642 397.792,359.420 397.573 C 359.184 397.341,359.714 397.215,360.820 397.241 L 362.600 397.282 361.200 397.614 " stroke="none" fill="#b5b4b4" fill-rule="evenodd"></path><path id="path4" d="M38.400 0.400 C 38.400 0.620,38.760 0.800,39.200 0.800 C 39.640 0.800,40.000 0.620,40.000 0.400 C 40.000 0.180,39.640 0.000,39.200 0.000 C 38.760 0.000,38.400 0.180,38.400 0.400 M359.600 0.353 C 359.600 0.548,360.050 0.793,360.600 0.898 C 361.271 1.026,361.600 0.910,361.600 0.545 C 361.600 0.230,361.177 0.000,360.600 0.000 C 360.050 0.000,359.600 0.159,359.600 0.353 M33.000 1.600 C 32.293 2.381,32.301 2.400,33.338 2.400 C 33.922 2.400,34.400 2.209,34.400 1.976 C 34.400 1.743,34.175 1.688,33.900 1.853 C 33.560 2.057,33.576 1.937,33.949 1.477 C 34.724 0.521,33.877 0.631,33.000 1.600 M365.944 1.613 C 366.971 2.469,367.600 2.621,367.600 2.014 C 367.600 1.559,366.279 0.794,365.526 0.813 C 365.225 0.821,365.404 1.163,365.944 1.613 M369.914 2.851 C 370.637 3.060,371.121 3.403,370.991 3.615 C 370.860 3.827,371.151 4.000,371.638 4.000 L 372.522 4.000 371.600 3.200 C 371.093 2.760,370.210 2.416,369.639 2.436 C 368.687 2.469,368.711 2.504,369.914 2.851 M41.777 3.653 C 41.130 3.792,112.330 3.902,200.000 3.898 C 287.670 3.894,359.040 3.822,358.600 3.737 C 357.217 3.471,43.015 3.387,41.777 3.653 M26.000 4.867 C 26.000 5.343,26.051 5.658,26.113 5.567 C 26.175 5.475,26.467 5.085,26.762 4.700 C 27.221 4.101,27.204 4.000,26.649 4.000 C 26.250 4.000,26.000 4.334,26.000 4.867 M19.860 7.787 C 19.500 8.725,20.227 8.854,21.009 7.991 C 21.699 7.228,21.695 7.200,20.905 7.200 C 20.454 7.200,19.984 7.464,19.860 7.787 M378.781 7.556 C 379.100 7.771,379.550 7.835,379.781 7.697 C 380.011 7.559,379.978 7.721,379.706 8.057 C 379.305 8.552,379.327 8.667,379.823 8.667 C 380.839 8.667,380.269 7.409,379.196 7.283 C 378.437 7.193,378.338 7.258,378.781 7.556 M16.550 10.587 C 16.426 10.910,16.417 11.405,16.531 11.687 C 16.660 12.009,16.749 11.940,16.768 11.500 C 16.786 11.115,16.980 10.800,17.200 10.800 C 17.420 10.800,17.600 10.620,17.600 10.400 C 17.600 9.785,16.803 9.926,16.550 10.587 M14.917 12.300 C 14.775 12.685,14.465 13.132,14.229 13.294 C 13.943 13.490,13.971 13.590,14.313 13.594 C 14.594 13.597,14.941 13.285,15.083 12.900 C 15.225 12.515,15.535 12.068,15.771 11.906 C 16.057 11.710,16.029 11.610,15.687 11.606 C 15.406 11.603,15.059 11.915,14.917 12.300 M390.226 18.442 C 390.352 18.646,390.623 18.709,390.828 18.583 C 391.032 18.456,391.200 18.723,391.200 19.176 C 391.200 19.629,391.391 20.000,391.624 20.000 C 391.857 20.000,391.948 20.161,391.826 20.358 C 391.704 20.555,391.874 20.819,392.202 20.946 C 392.945 21.231,392.981 20.638,392.264 19.921 C 391.970 19.627,391.645 19.135,391.543 18.828 C 391.440 18.521,391.051 18.225,390.676 18.170 C 390.302 18.115,390.099 18.237,390.226 18.442 M7.333 20.145 C 7.333 20.476,7.620 20.615,8.062 20.500 C 8.463 20.395,8.692 20.150,8.572 19.955 C 8.230 19.401,7.333 19.539,7.333 20.145 M4.172 24.928 C 3.852 25.763,4.252 26.308,4.790 25.770 C 5.017 25.543,5.023 25.161,4.805 24.808 C 4.498 24.311,4.402 24.330,4.172 24.928 M394.400 24.800 C 394.400 25.020,394.670 25.200,395.000 25.200 C 395.330 25.200,395.600 25.410,395.600 25.667 C 395.600 25.923,395.694 26.039,395.809 25.924 C 395.925 25.809,395.905 25.419,395.767 25.057 C 395.494 24.348,394.400 24.142,394.400 24.800 M2.400 29.216 C 2.400 29.893,2.494 29.944,2.958 29.516 C 3.534 28.984,3.439 28.400,2.776 28.400 C 2.569 28.400,2.400 28.767,2.400 29.216 M1.379 32.366 C 1.503 32.567,1.379 32.823,1.102 32.934 C 0.789 33.060,0.770 33.149,1.051 33.168 C 1.299 33.186,1.726 32.930,2.000 32.600 C 2.409 32.107,2.378 32.000,1.825 32.000 C 1.455 32.000,1.255 32.165,1.379 32.366 M0.000 37.600 C 0.000 38.040,0.180 38.400,0.400 38.400 C 0.620 38.400,0.800 38.040,0.800 37.600 C 0.800 37.160,0.620 36.800,0.400 36.800 C 0.180 36.800,0.000 37.160,0.000 37.600 M396.059 40.600 C 396.055 42.274,396.122 42.459,396.472 41.736 C 396.761 41.138,396.763 40.521,396.477 39.736 C 396.095 38.688,396.063 38.755,396.059 40.600 M3.507 40.574 C 3.405 41.110,3.471 41.785,3.654 42.074 C 3.867 42.409,3.990 42.056,3.994 41.100 C 4.001 39.385,3.780 39.147,3.507 40.574 M311.466 77.735 C 310.843 78.431,302.383 87.065,292.666 96.922 C 282.950 106.779,271.850 118.053,268.000 121.975 C 264.150 125.897,251.820 138.410,240.600 149.782 C 229.380 161.154,216.507 174.236,211.993 178.852 C 206.477 184.493,203.591 187.171,203.193 187.018 C 202.867 186.893,197.633 181.888,191.562 175.895 C 144.050 128.998,146.288 131.091,145.071 132.408 C 144.699 132.810,144.753 132.864,145.329 132.660 C 146.529 132.236,147.219 132.828,158.327 143.800 C 164.197 149.598,173.050 158.322,178.000 163.186 C 182.950 168.050,190.518 175.533,194.818 179.815 C 199.117 184.097,202.952 187.600,203.339 187.600 C 203.967 187.600,210.792 180.838,231.331 159.865 C 234.814 156.309,243.004 147.996,249.531 141.392 C 260.496 130.298,273.611 116.986,302.099 88.032 C 308.203 81.827,313.378 76.863,313.599 76.999 C 313.846 77.152,314.009 80.580,314.024 85.924 C 314.038 90.696,314.205 100.810,314.396 108.400 C 314.587 115.990,314.949 136.780,315.201 154.600 C 315.452 172.420,315.819 187.630,316.017 188.400 C 316.249 189.301,316.311 186.951,316.192 181.800 C 316.091 177.400,315.910 164.530,315.790 153.200 C 315.547 130.153,314.447 77.673,314.191 76.900 C 313.904 76.035,312.644 76.422,311.466 77.735 M3.477 360.300 C 3.359 360.905,3.428 361.571,3.631 361.780 C 3.858 362.014,4.000 361.592,4.000 360.680 C 4.000 358.928,3.778 358.767,3.477 360.300 M396.012 361.367 C 396.005 362.448,396.127 363.207,396.282 363.052 C 396.763 362.570,396.849 360.816,396.427 360.091 C 396.117 359.559,396.022 359.852,396.012 361.367 M0.000 363.800 C 0.000 364.130,0.264 364.400,0.587 364.400 C 0.945 364.400,1.085 364.165,0.945 363.800 C 0.818 363.470,0.554 363.200,0.357 363.200 C 0.161 363.200,0.000 363.470,0.000 363.800 M5.074 365.900 C 4.978 366.065,5.045 366.560,5.222 367.000 C 5.503 367.698,5.547 367.660,5.572 366.700 C 5.600 365.615,5.412 365.314,5.074 365.900 M394.412 366.620 C 394.423 367.654,394.477 367.709,394.854 367.061 C 395.161 366.532,395.158 366.198,394.841 365.881 C 394.520 365.560,394.403 365.759,394.412 366.620 M397.484 369.600 C 397.369 370.040,397.410 370.400,397.575 370.400 C 397.741 370.400,398.202 370.040,398.600 369.600 C 399.301 368.825,399.299 368.800,398.509 368.800 C 398.030 368.800,397.607 369.130,397.484 369.600 M397.048 372.706 C 396.880 373.204,396.575 373.508,396.371 373.382 C 396.167 373.256,396.000 373.343,396.000 373.576 C 396.000 374.085,396.407 374.110,397.139 373.646 C 397.436 373.458,397.606 372.966,397.516 372.552 C 397.372 371.880,397.322 371.896,397.048 372.706 M393.781 379.170 C 393.907 379.373,393.734 379.625,393.397 379.729 C 392.923 379.876,392.937 379.905,393.459 379.859 C 394.212 379.793,394.729 378.800,394.010 378.800 C 393.758 378.800,393.656 378.966,393.781 379.170 M8.800 383.821 C 8.800 383.904,9.181 384.176,9.646 384.425 C 10.305 384.777,10.455 384.766,10.325 384.374 C 10.177 383.931,8.800 383.432,8.800 383.821 M10.905 385.533 C 10.935 385.937,11.191 386.267,11.474 386.267 C 11.822 386.267,11.862 386.115,11.597 385.797 C 11.383 385.538,11.325 385.208,11.470 385.063 C 11.615 384.918,11.535 384.800,11.292 384.800 C 11.049 384.800,10.875 385.130,10.905 385.533 M388.945 385.400 C 388.818 385.730,388.453 386.000,388.134 386.000 C 387.814 386.000,387.659 386.172,387.789 386.383 C 388.110 386.901,389.200 386.443,389.200 385.791 C 389.200 385.502,389.425 385.176,389.700 385.065 C 390.092 384.907,390.089 384.856,389.687 384.832 C 389.406 384.814,389.071 385.070,388.945 385.400 M13.517 388.732 C 14.553 389.794,15.455 390.530,15.521 390.367 C 15.658 390.035,12.407 386.800,11.937 386.800 C 11.770 386.800,12.482 387.669,13.517 388.732 M383.772 390.355 C 384.066 390.830,383.015 391.673,382.599 391.297 C 382.419 391.133,382.408 391.237,382.576 391.526 C 382.818 391.946,383.031 391.915,383.630 391.373 C 384.283 390.782,384.352 390.000,383.753 390.000 C 383.643 390.000,383.651 390.160,383.772 390.355 M16.557 391.433 C 16.691 391.781,16.800 392.141,16.800 392.233 C 16.800 392.325,16.963 392.400,17.163 392.400 C 17.362 392.400,17.431 392.040,17.316 391.600 C 17.201 391.160,16.928 390.800,16.711 390.800 C 16.493 390.800,16.424 391.085,16.557 391.433 M19.100 392.665 C 19.375 392.776,19.600 393.122,19.600 393.433 C 19.600 393.745,19.786 394.000,20.014 394.000 C 20.295 394.000,20.290 393.742,20.000 393.200 C 19.765 392.760,19.353 392.414,19.086 392.432 C 18.720 392.455,18.723 392.513,19.100 392.665 M21.200 395.000 C 21.200 395.330,21.470 395.600,21.800 395.600 C 22.130 395.600,22.400 395.330,22.400 395.000 C 22.400 394.670,22.130 394.400,21.800 394.400 C 21.470 394.400,21.200 394.670,21.200 395.000 M377.562 395.046 C 377.098 395.605,377.127 395.673,377.780 395.546 C 378.194 395.466,378.609 395.175,378.700 394.900 C 378.938 394.186,378.196 394.282,377.562 395.046 M38.000 397.355 C 38.000 397.689,40.411 397.840,40.891 397.535 C 41.196 397.342,40.720 397.210,39.700 397.206 C 38.765 397.203,38.000 397.270,38.000 397.355 M359.420 397.573 C 359.642 397.792,360.381 397.809,361.200 397.614 L 362.600 397.282 360.820 397.241 C 359.714 397.215,359.184 397.341,359.420 397.573 M30.800 399.357 C 30.800 399.663,31.271 400.032,31.847 400.176 C 33.110 400.493,33.605 400.182,32.430 399.810 C 31.974 399.665,31.600 399.378,31.600 399.173 C 31.600 398.968,31.420 398.800,31.200 398.800 C 30.980 398.800,30.800 399.050,30.800 399.357 M368.177 399.367 C 367.750 399.679,367.536 400.069,367.701 400.234 C 367.865 400.399,368.000 400.323,368.000 400.067 C 368.000 399.810,368.270 399.600,368.600 399.600 C 368.930 399.600,369.200 399.420,369.200 399.200 C 369.200 398.676,369.100 398.693,368.177 399.367 M363.300 400.287 C 362.511 400.570,362.718 401.200,363.600 401.200 C 364.040 401.200,364.400 401.031,364.400 400.824 C 364.400 400.312,363.905 400.070,363.300 400.287 " stroke="none" fill="#adacac" fill-rule="evenodd"></path></g></svg>